<?xml version="1.0" encoding="UTF-8"?>
<svg width="1200pt" height="1200pt" version="1.1" viewBox="0 0 1200 1200" xmlns="http://www.w3.org/2000/svg">
 <path d="m780 141.36c-37.199 0-67.441 30.242-67.441 67.441v47.16c-10.68-8.0391-24-12.719-38.398-12.719h-4.3203c-19.922 0-37.68 9-49.559 23.039-11.16-17.039-30.48-28.32-52.32-28.32h-7.9219c-14.039 0-27 4.6797-37.441 12.602v-77.762c0-36.719-29.879-66.602-66.602-66.602-36.719 0-66.602 29.879-66.602 66.602v255.6c-22.441 19.078-36.602 47.641-36.602 79.441v100.44c0 49.559 25.078 93.48 63.121 119.64v150.72c0 43.441 35.398 78.84 78.961 78.84h65.641v20.039c-29.52 3-52.559 27.961-52.559 58.32 0 32.281 26.281 58.559 58.68 58.559 15 0 29.281-5.7617 39.961-15.84 10.684 10.078 24.844 15.836 39.961 15.836 32.398 0 58.68-26.281 58.68-58.559 0-30.359-23.039-55.32-52.559-58.32v-20.039h41.52c3.9609 11.16 12.84 20.039 24 24v12.359c0 18.238 14.879 33 33 33 18.121 0 32.879-14.762 32.879-33l0.003906-265.92c38.039-26.16 63.121-70.078 63.121-119.64l-0.003906-171.24c0.12109-0.96094 0.24219-1.8008 0.24219-2.7578v-225.48c0-37.199-30.242-67.441-67.441-67.441zm-148.8 166.8c0-21.242 17.281-38.52 38.641-38.52h4.3203c20.039 0 36.48 15.242 38.398 34.559 0.12109 1.3203 0.24219 2.6406 0.24219 3.9609v128.88c-0.35938 21-17.52 38.039-38.641 38.039h-4.3203c-9.7188 0-18.602-3.6016-25.32-9.4805 4.6797-12.359 7.3203-25.918 7.3203-39.961v-9.3555c0-7.3203-5.8789-13.199-13.199-13.199h-7.4414zm-108.48-7.3203c0-20.641 16.801-37.32 37.32-37.32h7.9219c20.52 0 37.199 16.559 37.32 37.199v0.12109 102.24h-82.559zm-108.12-128.04c0-22.918 18.602-41.398 41.398-41.398 22.801 0 41.398 18.48 41.398 41.398v230.28l-39.84-0.003906c-15.359 0-29.879 3.2422-42.961 9.2422zm264.24 863.04c0 17.758-14.52 32.16-32.281 32.16-7.8008 0-15.359-3-21.121-8.0391v-0.12109c-4.4414-21.242-23.281-36.719-45.121-36.719-7.3203 0-13.199 5.8789-13.199 13.199 0 7.3203 5.8789 13.199 13.199 13.199 4.6797 0 9.1211 1.6797 12.48 4.5586-5.8789 8.6406-15.598 13.922-26.156 13.922-17.879 0-32.277-14.398-32.277-32.16 0-17.879 14.398-32.281 32.277-32.281 3.3594 0 6-0.24219 7.9219-0.71875h0.35938c1.3203-0.12109 2.5195-0.35938 3.5977-0.83984 4.918-1.8008 8.3984-6.6016 8.3984-12.242v-78.359c0-10.801 8.7617-19.559 19.68-19.559 10.801 0 19.68 8.7578 19.68 19.559v98.641c0 7.3203 5.8789 13.199 13.199 13.199 7.1992 0 13.199-5.8789 13.199-13.199v-5.8789c14.883 2.8789 26.164 15.961 26.164 31.68zm78.84-42c0 3.6016-2.8789 6.6016-6.4805 6.6016-3.6016 0-6.4805-3-6.4805-6.6016v-23.281c0-7.1992-6-13.199-13.199-13.199-7.3203 0-13.199-5.8789-13.199-13.078s-5.8789-13.199-13.199-13.199h-52.441v-19.68c0-25.32-20.762-45.961-46.082-45.961-25.441 0-46.078 20.641-46.078 45.961v19.68h-65.641c-29.039 0-52.559-23.52-52.559-52.441 0-19.078 10.32-36.238 26.16-45.48v25.68c0 18.121 14.762 33 32.879 33 18.238 0 33-14.879 33-33v-6.4805h6.4805c15.84 0 29.16-11.281 32.281-26.281h132c29.039 0 52.559 23.52 52.559 52.559zm0-173.88c-13.922-12.602-32.281-20.277-52.559-20.277l-144.6-0.003906c-7.1992 0-13.199 5.8789-13.199 13.199v6.6016c0 3.4805-2.8789 6.4805-6.4805 6.4805h-19.68c-7.3203 0-13.199 5.8789-13.199 13.199v19.68c0 3.6016-3 6.6016-6.6016 6.6016s-6.4805-3-6.4805-6.6016v-44.641c0-3.9609-1.8008-7.6797-4.8008-10.199-3.1211-2.5195-7.1992-3.4805-11.039-2.7617-14.039 2.8789-26.641 9.3594-36.719 18.602v-77.398c17.16 7.0781 36 11.039 55.68 11.039h204c19.68 0 38.52-3.9609 55.68-11.039zm63.121-211.68c0 33.719-14.039 64.199-36.719 85.801-7.8008 7.5586-16.684 13.918-26.402 19.078-16.559 8.8789-35.52 13.918-55.68 13.918h-204c-20.16 0-39.121-5.0391-55.68-13.918-9.7188-5.1602-18.602-11.52-26.402-19.082-22.68-21.602-36.719-52.078-36.719-85.801v-100.44c0-17.281 5.6406-33.242 15.242-46.199 5.5195-7.6797 12.602-14.398 20.641-19.559 12.238-8.0391 26.879-12.602 42.48-12.602h167.76c-0.71875 14.281-4.918 27.719-11.758 39.359-7.082 12.238-17.281 22.559-29.52 30-12.844 7.8047-27.961 12.242-44.043 12.242h-66c-7.3203 0-13.199 5.8789-13.199 13.199v36c0 7.1992 5.8789 13.199 13.199 13.199h18.602c35.398 0 64.199 28.801 64.199 64.199 0 7.3203 5.8789 13.199 13.199 13.199s13.199-5.8789 13.199-13.199c0-50.039-40.68-90.602-90.602-90.602h-5.3984v-9.6016l52.801 0.007813c38.039 0 71.758-19.078 92.039-48.242 10.68 7.6797 23.641 12.242 37.801 12.242h4.3203c35.641 0 64.68-28.801 65.039-64.32v-0.12109c0.12109-0.96094 0.24219-1.8008 0.24219-2.7578v-225.48c0-22.441 18.242-40.559 40.559-40.559 22.32 0 40.559 18.121 40.559 40.559v225.48c0 0.96094 0.12109 1.8008 0.24219 2.7578z"/>
 <path d="m712.8 308.16v128.88c-0.12109-0.96094-0.24219-1.8008-0.24219-2.7578v-130.08c0.12109 1.3203 0.24219 2.6406 0.24219 3.9609z"/>
</svg>
