<?xml version="1.0" encoding="UTF-8"?>
<!-- Generated by Pixelmator Pro 3.6.7 -->
<svg width="660" height="1600" viewBox="0 0 660 1600" xmlns="http://www.w3.org/2000/svg">
    <path id="Path" fill="#000000" stroke="none" d="M 570 188.47998 C 520.401367 188.47998 480.078674 228.802734 480.078674 278.401367 L 480.078674 341.281372 C 465.838684 330.5625 448.078674 324.322632 428.881348 324.322632 L 423.120911 324.322632 C 396.558289 324.322632 372.88092 336.322632 357.042236 355.041382 C 342.162292 332.322632 316.402283 317.281372 287.282227 317.281372 L 276.719727 317.281372 C 258.001038 317.281372 240.719727 323.520996 226.798401 334.083984 L 226.798401 230.401367 C 226.798401 181.442627 186.959717 141.598633 137.995728 141.598633 C 89.037048 141.598633 49.193054 181.437378 49.193054 230.401367 L 49.193054 571.201294 C 19.271729 596.638672 0.390381 634.722656 0.390381 677.122681 L 0.390381 811.042664 C 0.390381 877.121338 33.827728 935.682678 84.551697 970.562683 L 84.551697 1171.522705 C 84.551697 1229.44397 131.749084 1276.6427 189.833069 1276.6427 L 277.354431 1276.6427 L 277.354431 1303.361328 C 237.994385 1307.361328 207.275696 1340.6427 207.275696 1381.121216 C 207.275696 1424.162598 242.317078 1459.200073 285.515686 1459.200073 C 305.515686 1459.200073 324.557068 1451.5177 338.797058 1438.080078 C 353.042419 1451.517212 371.922363 1459.194702 392.078369 1459.194702 C 435.275696 1459.194702 470.318359 1424.15332 470.318359 1381.116089 C 470.318359 1340.637329 439.599792 1307.356079 400.239746 1303.356079 L 400.239746 1276.637329 L 455.599792 1276.637329 C 460.88092 1291.517334 472.719727 1303.356079 487.599792 1308.637329 L 487.599792 1325.115967 C 487.599792 1349.43335 507.438416 1369.116089 531.599792 1369.116089 C 555.761108 1369.116089 575.438354 1349.43335 575.438354 1325.115967 L 575.443604 970.555969 C 626.162231 935.676025 659.60498 877.118652 659.60498 811.03595 L 659.599731 582.716003 C 659.761108 581.434753 659.922729 580.314941 659.922729 579.03894 L 659.922729 278.398926 C 659.922729 228.800293 619.599976 188.477539 570.001343 188.477539 Z M 371.600037 410.880005 C 371.600037 382.557373 394.641357 359.52002 423.121338 359.52002 L 428.881775 359.52002 C 455.600403 359.52002 477.521729 379.842651 480.079102 405.598633 C 480.24054 407.359009 480.402039 409.119507 480.402039 410.879883 L 480.402039 582.719849 C 479.922852 610.719849 457.041992 633.438538 428.880615 633.438538 L 423.1203 633.438538 C 410.161865 633.438538 398.317627 628.636414 389.360291 620.797852 C 395.599854 604.319214 399.120667 586.24054 399.120667 567.516479 L 399.120667 555.04248 C 399.120667 545.282104 391.282166 537.443848 381.521973 537.443848 L 371.600098 537.443848 Z M 226.959961 401.119629 C 226.959961 373.598267 249.361328 351.359619 276.719971 351.359619 L 287.282532 351.359619 C 314.642517 351.359619 336.881165 373.438232 337.042542 400.958252 L 337.042542 401.119751 L 337.042542 537.439697 L 226.963867 537.439697 Z M 82.799988 230.399658 C 82.799988 199.842285 107.602661 175.202271 137.997314 175.202271 C 168.398682 175.202271 193.194641 199.842285 193.194641 230.399658 L 193.194641 537.439575 L 140.074646 537.434448 C 119.596008 537.434448 100.236023 541.757324 82.793335 549.757324 Z M 435.120056 1381.119629 C 435.120056 1404.796875 415.76001 1423.999634 392.078674 1423.999634 C 381.677551 1423.999634 371.600037 1419.999634 363.917297 1413.280762 L 363.917297 1413.119263 C 357.995422 1384.796753 332.875977 1364.160645 303.756042 1364.160645 C 293.995605 1364.160645 286.157288 1371.999146 286.157288 1381.759277 C 286.157288 1391.519653 293.99585 1399.358032 303.756042 1399.358032 C 309.995605 1399.358032 315.91748 1401.597656 320.395996 1405.436157 C 312.557434 1416.956909 299.598633 1423.998901 285.521301 1423.998901 C 261.682678 1423.998901 242.485352 1404.801392 242.485352 1381.118774 C 242.485352 1357.280151 261.682678 1338.077515 285.521301 1338.077515 C 290.000549 1338.077515 293.521301 1337.754517 296.083923 1337.119141 L 296.563049 1337.119141 C 298.323425 1336.957642 299.922363 1336.640015 301.359924 1335.99939 C 307.917297 1333.598267 312.557861 1327.197266 312.557861 1319.676636 L 312.557861 1215.197998 C 312.557861 1200.796753 324.240051 1189.119385 338.797852 1189.119385 C 353.199158 1189.119385 365.037842 1200.796387 365.037842 1215.197998 L 365.037842 1346.71936 C 365.037842 1356.479736 372.876404 1364.317993 382.636475 1364.317993 C 392.235413 1364.317993 400.235168 1356.479492 400.235168 1346.71936 L 400.235168 1338.880859 C 420.079163 1342.71936 435.120544 1360.162231 435.120544 1381.120728 Z M 540.23999 1325.119629 C 540.23999 1329.921753 536.401428 1333.921753 531.599365 1333.921753 C 526.79718 1333.921753 522.958679 1329.921753 522.958679 1325.119629 L 522.958679 1294.078247 C 522.958679 1284.47937 514.958679 1276.479614 505.360046 1276.479614 C 495.599609 1276.479614 487.761292 1268.640991 487.761292 1259.042236 C 487.761292 1249.443481 479.922791 1241.443604 470.162659 1241.443604 L 400.241394 1241.443604 L 400.241394 1215.203613 C 400.241394 1181.443604 372.558655 1153.922241 338.798645 1153.922241 C 304.87738 1153.922241 277.361328 1181.443604 277.361328 1215.203613 L 277.361328 1241.443604 L 189.840027 1241.443604 C 151.121338 1241.443604 119.761353 1210.083618 119.761353 1171.522339 C 119.761353 1146.084961 133.521301 1123.204956 154.641296 1110.882202 L 154.641296 1145.122192 C 154.641296 1169.283569 174.324036 1189.122192 198.47998 1189.122192 C 222.797363 1189.122192 242.47998 1169.283569 242.47998 1145.122192 L 242.47998 1136.481567 L 251.120667 1136.481567 C 272.240662 1136.481567 290.000671 1121.440308 294.162048 1101.440308 L 470.162048 1101.440308 C 508.880676 1101.440308 540.240662 1132.800293 540.240662 1171.518921 Z M 540.23999 1093.279663 C 521.677307 1076.477051 497.198669 1066.243652 470.161316 1066.243652 L 277.361328 1066.238281 C 267.76239 1066.238281 259.762695 1074.076904 259.762695 1083.837158 L 259.762695 1092.63916 C 259.762695 1097.279907 255.924133 1101.279907 251.122009 1101.279907 L 224.882019 1101.279907 C 215.121582 1101.279907 207.283325 1109.118408 207.283325 1118.87854 L 207.283325 1145.11853 C 207.283325 1149.920654 203.283325 1153.920654 198.481201 1153.920654 C 193.679077 1153.920654 189.840515 1149.920654 189.840515 1145.11853 L 189.840515 1085.597168 C 189.840515 1080.315918 187.439453 1075.357666 183.439453 1071.998535 C 179.278015 1068.63916 173.840515 1067.35791 168.720764 1068.316162 C 150.002136 1072.154785 133.199463 1080.79541 119.762146 1093.118896 L 119.762146 989.921631 C 142.642151 999.35907 167.762146 1004.640198 194.002136 1004.640198 L 466.002136 1004.640198 C 492.242126 1004.640198 517.362122 999.35907 540.242126 989.921631 Z M 624.401367 811.039612 C 624.401367 855.998291 605.682739 896.638245 575.442627 925.440918 C 565.041626 935.519043 553.197327 943.998291 540.23999 950.878235 C 518.161316 962.716797 492.879944 969.435608 466 969.435608 L 194 969.435608 C 167.119995 969.435608 141.838684 962.716797 119.76001 950.878235 C 106.801575 943.997986 94.957336 935.51825 84.557312 925.435608 C 54.317322 896.632874 35.598663 855.998291 35.598663 811.034241 L 35.598663 677.114258 C 35.598663 654.072937 43.119446 632.791565 55.921326 615.515564 C 63.280701 605.276001 72.723999 596.318298 83.442688 589.436951 C 99.76001 578.71814 119.281311 572.634277 140.082703 572.634277 L 363.762695 572.634277 C 362.804382 591.675598 357.205322 609.592957 348.085388 625.112915 C 338.642639 641.430237 325.044006 655.191589 308.725342 665.112915 C 291.600037 675.519226 271.444031 681.435608 250.001282 681.435608 L 162.001343 681.435608 C 152.240906 681.435608 144.402649 689.27417 144.402649 699.034241 L 144.402649 747.034241 C 144.402649 756.63324 152.241211 764.632874 162.001343 764.632874 L 186.804016 764.632874 C 234.001282 764.632874 272.402649 803.034241 272.402649 850.231628 C 272.402649 859.992004 280.241211 867.830261 290.001282 867.830261 C 299.761475 867.830261 307.600037 859.991699 307.600037 850.231628 C 307.600037 783.512939 253.360046 729.428955 186.797302 729.428955 L 179.599426 729.428955 L 179.599426 716.62677 L 250.000793 716.637207 C 300.719482 716.637207 345.678162 691.19989 372.719482 652.314514 C 386.959473 662.554138 404.240784 668.637207 423.120789 668.637207 L 428.881165 668.637207 C 476.402527 668.637207 515.121155 630.235901 515.599854 582.877197 L 515.599854 582.715759 C 515.761292 581.434509 515.922791 580.314697 515.922791 579.038696 L 515.922791 278.398682 C 515.922791 248.477295 540.245422 224.320068 570.001465 224.320068 C 599.761475 224.320068 624.0802 248.481323 624.0802 278.398682 L 624.0802 579.038696 C 624.0802 580.319946 624.241577 581.439758 624.403076 582.715759 Z"/>
    <path id="path1" fill="#000000" stroke="none" d="M 480.399963 410.880005 L 480.399963 582.720032 C 480.238525 581.438782 480.077087 580.318909 480.077087 579.042908 L 480.077087 405.602905 C 480.238525 407.363281 480.399963 409.123779 480.399963 410.884155 Z"/>
</svg>
