<?xml version="1.0" standalone="no"?>
<!DOCTYPE svg PUBLIC "-//W3C//DTD SVG 20010904//EN"
 "http://www.w3.org/TR/2001/REC-SVG-20010904/DTD/svg10.dtd">
<svg version="1.0" xmlns="http://www.w3.org/2000/svg"
 width="700.000000pt" height="700.000000pt" viewBox="0 0 700.000000 700.000000"
 preserveAspectRatio="xMidYMid meet">
<metadata>
Created by potrace 1.14, written by Peter Selinger 2001-2017
</metadata>
<g transform="translate(0.000000,700.000000) scale(0.100000,-0.100000)"
fill="#000000" stroke="none">
<path d="M2567 6370 c-95 -24 -190 -96 -240 -182 -57 -96 -57 -96 -57 -920 l0
-758 -59 -70 c-68 -81 -114 -170 -136 -261 -22 -95 -22 -787 1 -897 35 -173
121 -320 262 -453 l92 -87 0 -470 c0 -432 2 -475 19 -531 10 -33 30 -80 44
-103 37 -64 128 -145 200 -179 81 -38 167 -48 395 -49 l182 0 0 -55 0 -54 -42
-12 c-188 -49 -299 -231 -253 -411 25 -100 86 -176 180 -226 45 -24 61 -27
150 -27 89 0 106 3 151 27 27 14 56 33 63 42 12 14 18 12 58 -16 136 -93 317
-76 434 41 184 184 103 494 -148 567 l-53 15 0 55 0 54 120 0 119 0 15 -29
c18 -33 76 -86 105 -96 18 -5 21 -15 21 -63 0 -68 25 -128 68 -164 94 -79 240
-51 292 56 20 41 20 58 20 836 l0 793 85 80 c131 122 195 221 251 387 l29 85
0 1295 0 1295 -32 66 c-147 298 -570 292 -711 -9 -26 -54 -27 -65 -30 -245 -2
-104 -7 -187 -10 -185 -111 59 -125 63 -232 63 -94 0 -111 -3 -165 -28 -33
-15 -77 -44 -97 -64 l-37 -36 -41 46 c-26 29 -66 59 -108 79 -64 32 -72 33
-182 33 -109 0 -119 -2 -178 -31 l-62 -31 0 242 c0 185 -4 255 -16 300 -44
170 -181 282 -352 291 -42 2 -94 -1 -115 -6z m219 -176 c30 -18 60 -48 79 -78
l30 -49 3 -708 2 -707 -172 -4 c-141 -4 -185 -9 -238 -26 -36 -12 -66 -22 -67
-22 -2 0 -3 324 -3 720 0 782 -2 751 55 826 13 18 48 44 77 59 74 37 164 33
234 -11z m1871 -203 c22 -11 54 -36 71 -55 65 -75 63 -14 60 -1372 -4 -1370 2
-1267 -74 -1419 -68 -140 -186 -254 -329 -320 -139 -65 -143 -65 -885 -65
-742 0 -746 0 -885 65 -186 86 -326 253 -382 455 -16 57 -18 111 -18 460 0
391 0 396 23 453 53 131 166 239 290 277 60 19 94 20 594 20 l529 0 -7 -37
c-36 -208 -178 -368 -369 -418 -45 -11 -116 -15 -298 -15 l-238 0 -24 -25
c-24 -23 -25 -29 -25 -155 0 -72 4 -139 10 -149 15 -28 36 -34 160 -40 95 -6
125 -11 172 -33 114 -53 201 -177 214 -307 9 -79 28 -105 79 -105 60 0 79 31
72 119 -19 256 -222 457 -486 481 -65 6 -71 9 -71 29 0 22 2 22 198 28 233 6
276 14 401 74 77 37 108 59 173 123 l78 79 55 -25 c204 -94 435 -13 532 185
l28 56 5 745 c5 702 6 747 24 780 66 124 205 172 323 111z m-1251 -550 c48
-22 101 -82 114 -131 6 -19 10 -176 10 -347 l0 -313 -240 0 -240 0 0 313 c0
171 4 328 10 347 13 49 66 109 114 131 28 13 64 19 116 19 52 0 88 -6 116 -19z
m644 -49 c26 -16 57 -48 75 -76 l30 -49 3 -414 c2 -263 -1 -427 -8 -451 -14
-54 -48 -101 -96 -135 -69 -48 -210 -48 -271 1 l-21 17 18 70 c11 41 19 106
19 158 1 80 -1 90 -24 112 -17 17 -35 25 -60 25 l-36 0 3 308 3 307 28 48 c30
51 86 94 139 108 58 15 149 2 198 -29z m-1221 -2782 c53 -5 355 -9 671 -9 619
0 725 5 843 43 l77 24 0 -225 0 -224 -33 25 c-58 45 -141 76 -228 87 -49 6
-259 9 -502 7 l-419 -3 -24 -28 c-16 -19 -24 -40 -24 -66 0 -53 -13 -61 -101
-61 -110 0 -122 -11 -129 -125 -4 -67 -9 -90 -22 -98 -12 -8 -21 -7 -32 2 -13
11 -16 39 -16 163 l0 150 -30 30 c-27 26 -35 29 -68 23 -48 -8 -137 -49 -179
-81 l-33 -25 0 224 0 225 77 -24 c42 -14 120 -29 172 -34z m1415 -459 c61 -30
117 -87 148 -149 23 -46 23 -54 26 -417 2 -203 1 -380 -2 -391 -8 -31 -33 -37
-56 -14 -17 17 -20 34 -20 105 0 97 -12 119 -75 131 -40 7 -75 45 -75 81 0 13
-11 35 -25 48 -24 25 -27 25 -188 25 l-165 0 -4 88 c-3 58 -11 102 -25 133
-77 172 -300 213 -433 80 -59 -59 -80 -118 -80 -223 l0 -79 -232 3 c-220 3
-236 4 -280 26 -62 31 -119 87 -149 148 -34 69 -34 188 0 256 22 46 94 128
112 128 5 0 9 -35 9 -77 0 -94 12 -142 47 -183 118 -140 343 -54 343 133 0 25
3 27 38 27 74 1 162 63 178 126 l6 25 427 -3 426 -3 49 -24z m-661 -365 c66
-27 67 -31 67 -375 0 -209 4 -318 11 -335 35 -76 149 -42 149 45 0 16 4 19 23
14 65 -20 126 -102 127 -171 0 -75 -44 -142 -115 -175 -50 -23 -93 -24 -146
-3 -34 14 -44 25 -65 73 -45 101 -120 158 -221 168 -47 5 -57 3 -78 -17 -53
-49 -21 -121 59 -133 75 -12 73 -43 -5 -85 -119 -64 -269 26 -269 162 0 56 14
93 48 129 39 41 73 56 142 64 37 3 71 14 86 25 l24 19 0 250 c0 278 5 304 62
339 39 24 57 25 101 6z"/>
</g>
</svg>
