<?xml version="1.0" standalone="no"?>
<!DOCTYPE svg PUBLIC "-//W3C//DTD SVG 20010904//EN"
 "http://www.w3.org/TR/2001/REC-SVG-20010904/DTD/svg10.dtd">
<svg version="1.0" xmlns="http://www.w3.org/2000/svg"
 width="800.000000pt" height="800.000000pt" viewBox="0 0 800.000000 800.000000"
 preserveAspectRatio="xMidYMid meet">
<metadata>
Created by potrace 1.14, written by Peter Selinger 2001-2017
</metadata>
<g transform="translate(0.000000,800.000000) scale(0.100000,-0.100000)"
fill="#000000" stroke="none">
<path d="M5318 7978 c-9 -13 -49 -57 -89 -99 -41 -42 -121 -127 -179 -190 -58
-62 -139 -148 -180 -192 -41 -44 -93 -99 -115 -122 -22 -24 -86 -92 -142 -151
-56 -60 -116 -125 -135 -145 -78 -85 -265 -285 -288 -309 -40 -42 -165 -176
-285 -305 -60 -65 -132 -141 -160 -170 -27 -29 -93 -99 -145 -155 -52 -57
-120 -129 -150 -161 -31 -32 -93 -98 -139 -148 -45 -50 -104 -112 -129 -139
-26 -27 -96 -102 -157 -167 -60 -65 -128 -137 -150 -160 -22 -24 -83 -89 -135
-145 -52 -56 -115 -124 -140 -150 -25 -26 -90 -96 -145 -155 -55 -59 -129
-137 -163 -174 -35 -36 -100 -105 -143 -153 -44 -47 -99 -106 -122 -130 -52
-55 -158 -168 -302 -323 -60 -65 -135 -144 -165 -176 -30 -31 -95 -101 -145
-154 -128 -138 -311 -334 -420 -450 -22 -23 -89 -95 -150 -160 -60 -65 -125
-133 -143 -152 -18 -18 -29 -33 -25 -33 4 -1 680 -1 1501 -1 1132 -1 1492 -3
1492 -12 0 -9 -50 -165 -86 -267 -3 -8 -5 -15 -4 -15 0 0 -25 -74 -56 -165
-31 -90 -58 -171 -60 -180 -2 -8 -37 -114 -78 -234 -41 -121 -78 -229 -81
-240 -4 -12 -9 -25 -10 -31 -2 -5 -33 -98 -70 -205 -36 -107 -81 -242 -100
-300 -19 -58 -64 -193 -100 -300 -37 -107 -67 -199 -68 -205 -2 -5 -5 -14 -8
-20 -6 -9 -16 -48 -20 -70 0 -5 -6 -19 -12 -30 -10 -19 -13 -25 -20 -57 -1 -7
-5 -17 -8 -23 -4 -5 -10 -23 -14 -40 -10 -34 -10 -35 -18 -55 -4 -11 -90 -268
-111 -335 -2 -5 -3 -12 -3 -15 0 -3 -5 -15 -12 -28 -7 -13 -14 -31 -16 -40 -2
-9 -13 -43 -24 -74 -15 -45 -17 -56 -5 -51 8 3 14 8 14 12 0 3 30 38 68 77 65
68 241 256 319 340 48 52 212 228 278 298 28 29 104 110 170 181 66 71 134
143 150 160 62 67 261 279 285 305 14 15 75 80 135 144 61 65 133 142 160 171
28 29 91 96 140 150 50 53 113 121 140 150 28 29 96 101 151 161 56 60 117
125 135 145 19 19 84 89 144 153 61 65 126 135 145 155 19 21 87 93 150 161
63 67 152 162 196 209 45 47 92 98 105 112 29 32 224 240 297 318 30 31 95
100 145 155 51 54 108 115 127 135 19 21 87 93 150 160 63 68 129 138 145 156
17 17 77 82 135 144 58 62 125 134 150 160 25 27 90 97 145 156 55 59 138 148
185 196 47 49 84 89 82 89 -1 0 14 17 35 39 93 95 163 171 163 178 0 5 -673 7
-1495 6 -996 -1 -1495 2 -1495 8 0 6 17 61 37 122 20 62 38 114 38 117 1 3 5
13 9 22 4 9 9 22 10 30 2 7 6 20 9 28 5 13 49 147 52 160 1 3 4 12 8 20 3 8
29 85 57 170 28 85 54 162 57 170 4 8 7 17 8 20 3 12 27 86 32 100 4 8 7 18 8
23 2 4 4 9 5 12 3 5 3 6 15 50 4 17 13 36 19 44 6 8 10 15 8 15 -5 1 9 58 17
71 3 6 6 15 8 20 1 6 7 24 13 40 11 30 65 192 141 425 23 69 62 184 86 255 25
72 46 135 48 140 1 6 5 17 8 25 3 8 31 92 62 185 30 94 58 177 62 185 3 8 7
20 8 26 3 12 41 126 52 154 3 8 7 20 8 25 2 6 22 66 45 135 51 150 70 210 66
210 -2 0 -10 -10 -18 -22z"/>
</g>
</svg>
